<?xml version="1.0" standalone="no"?>
<!DOCTYPE svg PUBLIC "-//W3C//DTD SVG 20010904//EN"
 "http://www.w3.org/TR/2001/REC-SVG-20010904/DTD/svg10.dtd">
<svg version="1.0" xmlns="http://www.w3.org/2000/svg"
 width="1280.000000pt" height="720.000000pt" viewBox="0 0 1280.000000 720.000000"
 preserveAspectRatio="xMidYMid meet">

<g transform="translate(0.000000,720.000000) scale(0.100000,-0.100000)"
fill="#000000" stroke="none">
<path d="M3238 4087 c-132 -30 -209 -115 -216 -239 -5 -89 12 -148 58 -201 47
-53 112 -89 215 -117 103 -28 158 -60 179 -104 54 -113 -48 -206 -192 -175
-56 11 -112 62 -112 99 0 18 -7 20 -85 20 -80 0 -85 -1 -85 -21 0 -80 74 -180
162 -220 46 -21 68 -24 168 -24 96 0 123 4 161 21 109 51 163 133 164 249 0
94 -23 151 -86 210 -57 53 -100 74 -217 105 -45 12 -97 32 -115 44 -62 42 -68
140 -11 185 33 26 100 36 151 22 45 -12 93 -60 93 -92 0 -17 8 -19 85 -19 l85
0 0 28 c-1 40 -36 112 -78 155 -66 68 -207 100 -324 74z"/>
<path d="M4507 4094 c-4 -4 -7 -40 -7 -81 l0 -73 120 0 120 0 0 -328 0 -328
28 -55 c49 -97 104 -119 305 -119 l137 0 0 74 0 74 -130 4 c-108 2 -132 6
-147 21 -16 16 -18 51 -23 415 l-5 397 -196 3 c-107 1 -198 -1 -202 -4z"/>
<path d="M5694 4090 c-58 -9 -88 -22 -127 -59 -44 -40 -58 -75 -64 -167 l-6
-84 -98 0 -99 0 0 -75 0 -75 100 0 100 0 0 -260 0 -260 85 0 85 0 2 258 3 257
143 3 142 3 0 74 0 75 -146 0 -146 0 4 65 c6 96 12 99 164 103 l125 4 -3 71
-3 72 -105 1 c-58 1 -128 -2 -156 -6z"/>
<path d="M6130 3595 l0 -485 295 0 295 0 0 80 0 80 -210 0 -210 0 0 405 0 405
-85 0 -85 0 0 -485z"/>
<path d="M4028 3859 c-110 -16 -188 -73 -232 -169 -18 -39 -20 -65 -21 -200 0
-124 4 -165 18 -207 22 -63 75 -120 143 -153 43 -22 62 -25 159 -25 94 0 117
3 160 23 70 32 132 94 149 150 7 22 6 22 -77 22 -65 0 -86 -3 -90 -14 -18 -47
-161 -67 -225 -32 -41 21 -71 83 -72 144 l0 42 241 0 242 0 -5 108 c-3 63 -11
121 -20 143 -54 125 -203 193 -370 168z m151 -147 c42 -23 71 -74 71 -124 l0
-38 -156 0 -157 0 7 48 c3 26 14 58 24 72 42 57 144 78 211 42z"/>
<path d="M7098 3859 c-110 -16 -188 -73 -232 -169 -18 -39 -20 -65 -21 -200 0
-124 4 -165 18 -207 22 -63 75 -120 143 -153 43 -22 62 -25 159 -25 94 0 117
3 160 23 70 32 132 94 149 150 7 22 6 22 -77 22 -65 0 -86 -3 -90 -14 -18 -47
-161 -67 -225 -32 -41 21 -71 83 -72 144 l0 42 241 0 242 0 -5 108 c-3 63 -11
121 -20 143 -54 125 -203 193 -370 168z m151 -147 c42 -23 71 -74 71 -124 l0
-38 -156 0 -157 0 7 48 c3 26 14 58 24 72 42 57 144 78 211 42z"/>
<path d="M7858 3859 c-101 -15 -178 -66 -214 -143 l-24 -51 81 -3 c76 -3 82
-1 105 23 30 33 64 45 125 45 91 0 139 -42 139 -121 l0 -46 -132 -6 c-160 -6
-214 -22 -274 -83 -90 -89 -86 -238 9 -321 49 -43 98 -56 189 -52 96 5 160 41
194 109 l23 45 1 -72 0 -73 80 0 80 0 0 283 c0 320 -3 331 -78 399 -63 57
-187 84 -304 67z m212 -469 c0 -32 -5 -71 -12 -85 -39 -87 -239 -101 -277 -19
-29 64 0 135 62 153 18 5 76 10 130 10 l97 1 0 -60z"/>
<path d="M8755 3861 c-75 -13 -121 -47 -148 -111 l-15 -35 -1 68 -1 67 -80 0
-80 0 0 -370 0 -370 85 0 85 0 0 259 c0 252 1 259 23 292 29 43 60 59 117 59
85 0 140 -57 140 -145 l0 -45 91 0 92 0 -6 78 c-6 98 -39 169 -98 212 -52 37
-132 53 -204 41z"/>
<path d="M9515 3865 c-5 -2 -27 -6 -47 -10 -45 -7 -92 -45 -118 -94 l-19 -36
-1 63 0 62 -85 0 -85 0 0 -370 0 -370 85 0 85 0 0 238 c0 130 5 253 10 273 29
105 180 134 242 46 22 -31 23 -40 26 -294 l3 -263 85 0 85 0 -3 283 c-3 281
-3 282 -30 339 -28 61 -86 112 -139 122 -58 12 -84 15 -94 11z"/>
</g>
</svg>
