<?xml version="1.0" standalone="no"?>
<!DOCTYPE svg PUBLIC "-//W3C//DTD SVG 20010904//EN"
 "http://www.w3.org/TR/2001/REC-SVG-20010904/DTD/svg10.dtd">
<svg version="1.0" xmlns="http://www.w3.org/2000/svg"
 width="1280.000000pt" height="720.000000pt" viewBox="0 0 1280.000000 720.000000"
 preserveAspectRatio="xMidYMid meet">

<g transform="translate(0.000000,720.000000) scale(0.100000,-0.100000)"
fill="#000000" stroke="none">
<path d="M0 3600 l0 -3600 6400 0 6400 0 0 3600 0 3600 -6400 0 -6400 0 0
-3600z m3405 489 c33 -6 76 -19 96 -29 72 -37 139 -137 139 -209 0 -20 -5 -21
-84 -21 l-83 0 -9 32 c-18 62 -111 101 -186 79 -63 -19 -88 -51 -88 -110 0
-68 35 -103 133 -131 138 -40 165 -51 211 -84 59 -42 93 -87 111 -150 41 -139
-15 -270 -143 -333 -48 -23 -72 -28 -157 -31 -84 -3 -109 0 -160 18 -101 38
-185 141 -185 229 0 20 5 21 84 21 l84 0 7 -30 c4 -16 20 -41 37 -55 26 -22
40 -28 100 -39 36 -8 113 15 140 41 36 35 44 78 23 131 -21 52 -58 75 -171
108 -117 34 -174 64 -221 118 -47 53 -63 101 -63 185 0 103 43 178 129 225 78
42 159 53 256 35z m1505 -394 c3 -220 7 -401 8 -402 1 -1 15 -9 32 -18 21 -11
61 -15 150 -15 l120 0 0 -76 0 -76 -162 4 c-183 4 -223 16 -271 80 -44 60 -47
84 -47 424 l0 324 -120 0 -120 0 0 73 c0 41 3 77 7 81 4 3 95 5 202 4 l196 -3
5 -400z m1048 328 l3 -71 -125 -4 c-151 -4 -156 -7 -163 -102 l-6 -66 147 0
147 0 -3 -77 -3 -78 -142 -3 -143 -3 0 -254 0 -255 -85 0 -85 0 0 255 0 255
-100 0 -100 0 0 80 0 80 99 0 98 0 5 84 c7 103 33 156 94 192 57 34 110 42
244 41 l115 -2 3 -72z m342 -348 l0 -405 210 0 210 0 0 -80 0 -80 -295 0 -295
0 0 485 0 485 85 0 85 0 0 -405z m-2065 168 c34 -11 66 -32 101 -68 65 -64 84
-121 84 -247 l0 -88 -241 0 -242 0 6 -54 c11 -108 57 -151 162 -150 62 1 121
23 132 50 4 11 25 14 89 14 46 0 84 -2 84 -5 0 -23 -35 -77 -72 -111 -69 -64
-142 -87 -258 -82 -111 5 -167 25 -225 83 -70 70 -80 107 -80 295 0 151 2 169
23 215 13 28 35 63 50 78 82 86 245 116 387 70z m3070 0 c34 -11 66 -32 101
-68 65 -64 84 -121 84 -247 l0 -88 -241 0 -242 0 6 -54 c11 -108 57 -151 162
-150 62 1 121 23 132 50 4 11 25 14 89 14 46 0 84 -2 84 -5 0 -23 -35 -77 -72
-111 -69 -64 -142 -87 -258 -82 -111 5 -167 25 -225 83 -70 70 -80 107 -80
295 0 151 2 169 23 215 13 28 35 63 50 78 82 86 245 116 387 70z m768 1 c68
-24 114 -62 142 -117 25 -51 25 -51 25 -334 l0 -283 -80 0 -80 0 0 73 -1 72
-23 -45 c-34 -68 -98 -104 -194 -109 -91 -4 -140 9 -189 52 -91 80 -98 232
-15 320 59 62 147 87 307 87 l105 0 0 48 c0 57 -20 89 -66 108 -69 29 -180 9
-205 -37 -8 -16 -22 -19 -93 -19 l-84 0 10 35 c34 110 174 181 331 169 38 -3
87 -12 110 -20z m857 -7 c84 -43 130 -133 130 -257 l0 -50 -90 0 -90 0 0 45
c0 26 -7 59 -15 76 -48 92 -202 92 -250 0 -12 -25 -15 -74 -15 -286 l0 -255
-85 0 -85 0 0 370 0 370 80 0 80 0 0 -67 1 -68 15 35 c19 43 41 68 79 88 71
37 170 37 245 -1z m710 7 c49 -21 85 -58 112 -118 22 -49 23 -63 26 -333 l3
-283 -85 0 -86 0 0 248 c0 237 -1 250 -22 292 -18 36 -32 48 -63 59 -82 28
-167 -15 -185 -94 -5 -22 -10 -145 -10 -272 l0 -233 -85 0 -85 0 0 370 0 370
85 0 85 0 0 -62 1 -63 21 42 c43 91 172 125 288 77z"/>
<path d="M4021 3712 c-47 -23 -70 -58 -77 -114 l-7 -48 157 0 156 0 0 36 c0
20 -10 54 -22 75 -36 64 -134 89 -207 51z"/>
<path d="M7091 3712 c-47 -23 -70 -58 -77 -114 l-7 -48 157 0 156 0 0 36 c0
20 -10 54 -22 75 -36 64 -134 89 -207 51z"/>
<path d="M7850 3440 c-79 -19 -107 -110 -52 -171 52 -59 183 -49 242 18 27 30
30 41 30 98 l0 65 -92 -1 c-51 -1 -109 -5 -128 -9z"/>
</g>
</svg>
